<svg width="200" height="79" viewBox="0 0 200 79" fill="none" xmlns="http://www.w3.org/2000/svg">
<path d="M73.8772 43.8111C74.3936 43.8144 74.888 44.0208 75.2536 44.3857C75.6191 44.7506 75.8265 45.2447 75.8309 45.7613C75.8297 46.0102 75.7832 46.2568 75.6937 46.489L65.3768 71.3629C63.9219 74.9014 60.1102 78.1739 56.1156 78.1739C55.8666 78.1722 55.6203 78.1214 55.3909 78.0243C55.1615 77.9272 54.9535 77.7857 54.779 77.608C54.6044 77.4303 54.4666 77.2198 54.3736 76.9887C54.2806 76.7575 54.2341 76.5103 54.2368 76.2611C54.2342 75.7902 54.4005 75.334 54.7056 74.9753C55.0107 74.6167 55.4344 74.3795 55.8995 74.3068C57.1862 74.1458 58.4083 73.6503 59.4439 72.8697C60.4796 72.0891 61.2926 71.0505 61.802 69.8576L72.1065 44.992C72.2524 44.6425 72.4983 44.3439 72.8134 44.1338C73.1284 43.9237 73.4986 43.8114 73.8772 43.8111ZM174.083 43.7404C174.341 43.7382 174.596 43.7874 174.835 43.8849C175.074 43.9825 175.291 44.1266 175.474 44.3089C175.656 44.4911 175.801 44.7079 175.899 44.9465C175.994 45.1777 176.043 45.4249 176.045 45.6747V66.5311C176.045 67.0461 175.84 67.54 175.476 67.9042C175.112 68.2684 174.618 68.4729 174.104 68.4729C173.589 68.4729 173.095 68.2684 172.731 67.9042C172.367 67.54 172.162 67.0461 172.162 66.5311V45.7031C172.16 45.4481 172.207 45.195 172.302 44.9583C172.397 44.7217 172.538 44.5061 172.716 44.3239C172.895 44.1416 173.107 43.9963 173.341 43.8962C173.576 43.7961 173.828 43.7432 174.083 43.7404ZM183.261 43.7404C186.21 43.7611 189.033 44.9423 191.118 47.0285C193.203 49.1146 194.384 51.9381 194.405 54.8884V66.5311C194.405 67.0461 194.2 67.54 193.836 67.9042C193.472 68.2684 192.978 68.4729 192.464 68.4729C191.949 68.4729 191.455 68.2684 191.091 67.9042C190.727 67.54 190.523 67.0461 190.523 66.5311V54.8884C190.517 52.9611 189.751 51.114 188.391 49.7489C187.031 48.3839 185.187 47.6112 183.261 47.5992C182.671 47.5983 182.083 47.6709 181.511 47.8154C181.362 47.8505 181.21 47.8686 181.058 47.8694C180.576 47.8741 180.11 47.7007 179.748 47.3825C179.387 47.0643 179.155 46.6237 179.099 46.1453C179.042 45.6669 179.164 45.1844 179.441 44.7904C179.718 44.3965 180.131 44.1188 180.6 44.0107H180.709C181.548 43.835 182.403 43.7444 183.261 43.7404ZM125.553 43.6822C125.947 43.6832 126.332 43.8027 126.657 44.0252C126.983 44.2476 127.234 44.5627 127.378 44.9297L135.787 65.7577C135.876 65.9914 135.923 66.2393 135.924 66.4895C135.929 66.7493 135.881 67.0073 135.784 67.2483C135.687 67.4894 135.543 67.7086 135.361 67.8931C135.178 68.0775 134.96 68.2235 134.72 68.3224C134.479 68.4213 134.222 68.4711 133.962 68.4688C133.574 68.4666 133.196 68.346 132.878 68.1231C132.56 67.9002 132.318 67.5857 132.183 67.2214L123.724 46.3767C123.635 46.1589 123.588 45.926 123.587 45.6906C123.584 45.4296 123.633 45.1706 123.73 44.9284C123.828 44.6862 123.972 44.4655 124.154 44.279C124.337 44.0925 124.554 43.9438 124.794 43.8414C125.035 43.739 125.292 43.6849 125.553 43.6822ZM15.5712 32.0935C18.0195 32.0935 23.4689 33.6362 23.4689 36.2267C23.4814 36.6 23.3832 36.9686 23.1867 37.2861C22.9902 37.6036 22.7041 37.8559 22.3645 38.011C22.0249 38.1662 21.647 38.2174 21.2785 38.1581C20.9099 38.0988 20.567 37.9317 20.2932 37.6779C18.9903 36.5628 17.3316 35.9507 15.6169 35.9523C13.7057 35.9643 11.8761 36.7291 10.5247 38.081C9.17323 39.4329 8.4087 41.2631 8.39671 43.175V66.423C8.39671 66.9347 8.19349 67.4255 7.83179 67.7873C7.47008 68.1491 6.97951 68.3524 6.46799 68.3524C5.95647 68.3524 5.4659 68.1491 5.1042 67.7873C4.7425 67.4255 4.53931 66.9347 4.53931 66.423V47.6699H1.90812C1.39829 47.6569 0.913628 47.4454 0.557302 47.0804C0.20098 46.7154 0.00108422 46.2257 0.000162483 45.7156C-0.00313126 45.4621 0.0436809 45.2104 0.137881 44.975C0.232084 44.7396 0.371856 44.5252 0.549134 44.344C0.726411 44.1628 0.937717 44.0184 1.17093 43.9191C1.40414 43.8198 1.65467 43.7676 1.90812 43.7654H4.53931V43.175C4.53928 40.2439 5.70008 37.4322 7.76765 35.3553C9.83523 33.2785 12.6411 32.1056 15.5712 32.0935ZM21.5402 43.7654C22.0526 43.7741 22.5413 43.983 22.9017 44.3474C23.2621 44.7119 23.4657 45.2029 23.4689 45.7156C23.4732 45.7862 23.4732 45.857 23.4689 45.9276V66.423C23.4689 66.9347 23.2657 67.4255 22.904 67.7873C22.5423 68.1491 22.0517 68.3524 21.5402 68.3524C21.0287 68.3524 20.5381 68.1491 20.1764 67.7873C19.8147 67.4255 19.6115 66.9347 19.6115 66.423V47.6699H13.418C12.9082 47.6569 12.4235 47.4454 12.0672 47.0804C11.7109 46.7154 11.511 46.2257 11.5101 45.7156C11.5068 45.4621 11.5536 45.2104 11.6478 44.975C11.742 44.7396 11.8817 44.5252 12.059 44.344C12.2363 44.1628 12.4476 44.0184 12.6808 43.9191C12.914 43.8198 13.1646 43.7676 13.418 43.7654H21.5402ZM42.3071 32.0894C43.2815 32.0988 44.2503 32.2386 45.1877 32.5052C45.5812 32.6392 45.927 32.8853 46.1825 33.2134C46.438 33.5414 46.5921 33.9369 46.6259 34.3514C46.6248 34.8558 46.4237 35.3391 46.0668 35.6953C45.7099 36.0516 45.2263 36.2517 44.7221 36.2517C44.5532 36.2498 44.3853 36.2246 44.2233 36.1768H44.1651C43.0974 35.8988 41.9803 35.8696 40.8995 36.0914C39.8188 36.3131 38.8034 36.7799 37.9313 37.4559C37.0593 38.1318 36.3538 38.9989 35.8694 39.9904C35.3849 40.9819 35.1342 42.0714 35.1367 43.175V66.4189C35.1367 66.9306 34.9336 67.4213 34.5719 67.7831C34.2102 68.145 33.7196 68.3482 33.2081 68.3482C32.6965 68.3482 32.2059 68.145 31.8442 67.7831C31.4825 67.4213 31.2793 66.9306 31.2793 66.4189V47.6657H28.644C28.1345 47.6517 27.6505 47.4399 27.2944 47.0751C26.9383 46.7103 26.738 46.2212 26.7361 45.7114C26.7333 45.458 26.7805 45.2066 26.8749 44.9715C26.9693 44.7363 27.1091 44.5221 27.2863 44.341C27.4634 44.1599 27.6745 44.0155 27.9075 43.916C28.1404 43.8165 28.3907 43.764 28.644 43.7612H31.2793V43.1708C31.2793 40.2404 32.4396 37.4294 34.5062 35.3526C36.5729 33.2759 39.3777 32.1026 42.3071 32.0894ZM44.7159 39.5394C45.2184 39.5394 45.7016 39.7331 46.0651 40.0803C46.4285 40.4275 46.6443 40.9014 46.6674 41.4036V56.6597C46.6718 58.5732 47.4334 60.4071 48.7856 61.7606C50.1378 63.114 51.9706 63.8769 53.8835 63.8824C54.0664 63.8824 54.1994 63.8366 54.3823 63.8366H54.5652C55.047 63.8384 55.5105 64.0217 55.8633 64.3499C56.2161 64.6782 56.4323 65.1274 56.4689 65.608C56.4689 67.1507 55.3799 67.7411 53.8377 67.7411C50.9115 67.7034 48.1157 66.5238 46.0464 64.4538C43.9771 62.3837 42.7978 59.587 42.7602 56.6597V47.6699H40.2911C40.029 47.6726 39.769 47.6232 39.5262 47.5244C39.2834 47.4256 39.0627 47.2794 38.877 47.0944C38.6913 46.9094 38.5443 46.6892 38.4445 46.4468C38.3447 46.2044 38.2942 45.9445 38.2958 45.6823C38.3098 45.1847 38.5159 44.7118 38.8708 44.363C39.2258 44.0141 39.702 43.8163 40.1996 43.8111H42.7643V41.4036C42.7875 40.9014 43.0032 40.4275 43.3666 40.0803C43.7301 39.7331 44.2133 39.5394 44.7159 39.5394ZM83.6579 43.8943C84.1285 43.8921 84.5842 44.0595 84.9415 44.3659C85.2987 44.6723 85.5337 45.0972 85.6034 45.5628C85.6731 46.0284 85.5727 46.5036 85.3208 46.9012C85.0689 47.2988 84.6822 47.5924 84.2316 47.7281H84.1817C83.0012 48.0524 81.7791 48.4266 81.7791 50.3477C81.7832 50.7688 81.8884 51.1828 82.0859 51.5548C82.2834 51.9267 82.5674 52.2458 82.9139 52.485L92.6406 55.4705L92.9024 55.5703L92.919 55.5745C94.0526 56.2228 94.9639 57.1986 95.5336 58.374C96.1032 59.5493 96.3046 60.8694 96.1114 62.1612C95.9182 63.4531 95.3394 64.6564 94.4508 65.6135C93.5622 66.5706 92.4053 67.2368 91.1317 67.5249C90.9538 67.5795 90.7691 67.6089 90.583 67.6122C90.1106 67.6159 89.6529 67.4485 89.2941 67.1411C88.9354 66.8336 88.6999 66.4068 88.631 65.9393C88.5622 65.4718 88.6646 64.9952 88.9195 64.5973C89.1743 64.1994 89.5643 63.9071 90.0177 63.7743C91.1441 63.4541 92.2623 63.0425 92.2623 61.2586C92.2653 60.824 92.1637 60.395 91.9662 60.0078C91.7687 59.6207 91.4811 59.2867 91.1275 59.034L81.1514 55.9487C80.1573 55.3711 79.3322 54.5424 78.7588 53.5456C78.1854 52.5488 77.8839 51.4188 77.8843 50.2687C77.8902 48.7478 78.4326 47.2779 79.4158 46.1179C80.399 44.9578 81.76 44.1822 83.2589 43.9276H83.3295C83.4377 43.906 83.5476 43.8949 83.6579 43.8943ZM79.5594 60.1193C81.8664 60.1193 81.2387 63.4208 83.8865 63.8075C84.1411 63.8399 84.3865 63.9234 84.6081 64.0528C84.8297 64.1823 85.0229 64.3552 85.1761 64.5611C85.3293 64.767 85.4395 65.0017 85.5 65.2511C85.5604 65.5006 85.57 65.7597 85.528 66.0129C85.4861 66.2662 85.3935 66.5084 85.2558 66.725C85.1181 66.9416 84.9381 67.1282 84.7267 67.2736C84.5152 67.4191 84.2766 67.5203 84.0251 67.5714C83.7736 67.6224 83.5144 67.6222 83.263 67.5707H83.209C80.5695 67.0301 77.6099 64.8887 77.6099 62.0736C77.6132 61.557 77.8195 61.0625 78.1843 60.6968C78.549 60.3311 79.043 60.1236 79.5594 60.1193ZM165.133 59.7742C165.653 59.7752 166.152 59.9808 166.521 60.3465C166.89 60.7122 167.101 61.2086 167.108 61.7285C167.114 62.1028 167.002 62.4695 166.788 62.7763C165.582 64.5685 163.379 66.5644 161.097 67.2879L161.027 67.3087L160.864 67.3628C160.36 67.5136 159.816 67.4598 159.35 67.213C158.884 66.9661 158.534 66.5461 158.376 66.0434C158.217 65.5408 158.262 64.9958 158.501 64.5262C158.741 64.0566 159.155 63.6999 159.655 63.5331C161.238 63.0377 162.605 62.0187 163.533 60.6432C163.707 60.377 163.944 60.1581 164.223 60.0064C164.503 59.8547 164.815 59.7749 165.133 59.7742ZM119.127 59.7742C119.647 59.7752 120.145 59.9808 120.515 60.3465C120.884 60.7122 121.095 61.2086 121.101 61.7285C121.108 62.1028 120.996 62.4695 120.781 62.7763C119.572 64.5685 117.369 66.5644 115.087 67.2879L115.02 67.3087L114.854 67.3628C114.351 67.5048 113.813 67.4455 113.354 67.1973C112.894 66.9491 112.55 66.5315 112.393 66.0333C112.236 65.535 112.279 64.9952 112.514 64.5285C112.748 64.0617 113.155 63.7047 113.649 63.5331C115.232 63.0368 116.601 62.018 117.531 60.6432C117.703 60.3768 117.94 60.1576 118.219 60.0059C118.497 59.8541 118.81 59.7744 119.127 59.7742ZM153.249 44.0939C153.719 44.0942 154.173 44.2639 154.528 44.5719C154.883 44.8799 155.115 45.3056 155.182 45.7709C155.249 46.2362 155.146 46.71 154.891 47.1054C154.637 47.5008 154.249 47.7912 153.798 47.9235C152.642 48.2759 151.594 48.914 150.75 49.7788C149.905 50.6437 149.293 51.7074 148.968 52.8717H159.954C159.989 52.8694 160.023 52.8694 160.058 52.8717C160.094 52.8697 160.13 52.8697 160.166 52.8717H164.51C164.184 51.726 163.58 50.6786 162.752 49.8226C161.924 48.9666 160.897 48.3285 159.763 47.9651C159.304 47.8423 158.904 47.5569 158.64 47.1618C158.375 46.7668 158.263 46.289 158.324 45.8173C158.385 45.3456 158.615 44.9121 158.971 44.5974C159.328 44.2827 159.786 44.1082 160.262 44.1064C160.467 44.1088 160.67 44.1439 160.864 44.2103C163.132 44.9216 165.111 46.3414 166.512 48.261C167.914 50.1806 168.663 52.499 168.65 54.8759C168.649 55.3968 168.441 55.896 168.073 56.264C167.704 56.6319 167.205 56.8385 166.684 56.8385H148.669C148.701 58.3518 149.21 59.8162 150.123 61.0234C151.035 62.2305 152.306 63.119 153.752 63.5622C154.205 63.6913 154.596 63.9794 154.853 64.3737C155.11 64.768 155.216 65.2419 155.152 65.7084C155.088 66.1748 154.858 66.6023 154.503 66.9124C154.149 67.2224 153.695 67.3942 153.224 67.396C153.042 67.3924 152.862 67.363 152.688 67.3087C150.395 66.6176 148.386 65.2065 146.956 63.2842C145.527 61.3619 144.755 59.0304 144.753 56.6348V54.8551C144.755 52.4664 145.523 50.1413 146.945 48.2221C148.367 46.3029 150.367 44.8908 152.651 44.1937H152.672C152.858 44.131 153.053 44.0973 153.249 44.0939ZM107.243 44.0772C107.721 44.065 108.188 44.2289 108.553 44.5377C108.919 44.8465 109.158 45.2787 109.227 45.7525C109.295 46.2263 109.187 46.7086 108.923 47.108C108.659 47.5074 108.258 47.7961 107.796 47.9194C106.639 48.2719 105.59 48.9105 104.745 49.776C103.9 50.6416 103.286 51.7063 102.962 52.8717H113.948C113.982 52.8694 114.017 52.8694 114.052 52.8717C114.088 52.8697 114.124 52.8697 114.16 52.8717H118.504C118.178 51.7266 117.574 50.6797 116.747 49.8238C115.92 48.9679 114.894 48.3295 113.761 47.9651C113.302 47.8424 112.903 47.5573 112.638 47.1627C112.373 46.7681 112.261 46.2907 112.321 45.8193C112.382 45.3479 112.611 44.9145 112.967 44.5994C113.322 44.2844 113.78 44.1092 114.255 44.1064C114.461 44.1088 114.664 44.1439 114.858 44.2103C117.117 44.9223 119.089 46.3381 120.487 48.2509C121.885 50.1637 122.635 52.4734 122.627 54.8426C122.627 55.3632 122.42 55.8623 122.052 56.2304C121.684 56.5985 121.185 56.8053 120.665 56.8053H102.671C102.705 58.3204 103.216 59.7861 104.132 60.9934C105.048 62.2007 106.321 63.0881 107.771 63.529C108.224 63.658 108.614 63.9462 108.872 64.3405C109.129 64.7348 109.235 65.2087 109.171 65.6751C109.107 66.1415 108.876 66.5691 108.522 66.8792C108.168 67.1892 107.714 67.3609 107.243 67.3628C107.059 67.3656 106.876 67.3418 106.699 67.2921C106.679 67.2921 106.678 67.2921 106.678 67.2921C104.385 66.6004 102.376 65.1891 100.947 63.2669C99.5178 61.3448 98.745 59.0136 98.7426 56.6182V54.8385C98.7446 52.4497 99.5129 50.1247 100.935 48.2054C102.356 46.2862 104.356 44.8742 106.64 44.1771H106.665C106.851 44.114 107.046 44.0803 107.243 44.0772ZM56.7641 43.8111C57.1413 43.8177 57.5086 43.9325 57.8225 44.1419C58.1364 44.3512 58.3836 44.6463 58.5348 44.992L63.4647 56.7179C63.5544 56.9645 63.6008 57.2248 63.6019 57.4872C63.5997 57.9927 63.3979 58.4769 63.0406 58.8344C62.6833 59.1918 62.1992 59.3936 61.6939 59.3958C61.3094 59.3959 60.9331 59.2844 60.6106 59.0747C60.2882 58.8651 60.0335 58.5664 59.8774 58.2149L55.4381 47.6699H51.6971C51.1855 47.6699 50.695 47.4666 50.3333 47.1048C49.9716 46.7429 49.7683 46.2522 49.7683 45.7405C49.7683 45.2288 49.9716 44.738 50.3333 44.3762C50.695 44.0144 51.1855 43.8111 51.6971 43.8111H56.7641ZM141.284 44.018C141.616 43.8023 142.01 43.7045 142.405 43.7404C142.657 43.7382 142.907 43.7863 143.14 43.8818C143.374 43.9774 143.586 44.1185 143.764 44.2969C143.943 44.4754 144.084 44.6876 144.179 44.9211C144.275 45.1547 144.323 45.405 144.321 45.6573C144.319 45.9075 144.273 46.1555 144.184 46.3891L139.445 58.0818C139.315 58.4356 139.077 58.7398 138.766 58.9522C138.454 59.1646 138.084 59.2746 137.708 59.2669C137.188 59.2748 136.687 59.0782 136.311 58.7196C135.936 58.361 135.716 57.8691 135.7 57.35C135.697 57.0994 135.743 56.8506 135.837 56.6182L140.576 44.9297C140.703 44.5548 140.952 44.2337 141.284 44.018ZM90.6121 43.9276C90.7662 43.9299 90.9195 43.9495 91.0693 43.9858C93.3347 44.5138 95.941 46.1397 95.941 48.2562C95.9377 48.7613 95.7356 49.2449 95.3785 49.6021C95.0214 49.9593 94.538 50.1615 94.0331 50.1647C92.2914 50.1647 92.2166 48.0815 90.2504 47.7197L90.2463 47.7156C89.7821 47.6224 89.3689 47.3602 89.0868 46.9798C88.8047 46.5994 88.6738 46.1278 88.7193 45.6564C88.7648 45.1849 88.9836 44.7471 89.3332 44.4278C89.6829 44.1084 90.1386 43.9301 90.6121 43.9276ZM129.731 12.2099C130.16 12.2099 130.578 12.3535 130.917 12.6178C131.256 12.8821 131.497 13.252 131.601 13.6689L137.221 34.5011C137.259 34.6645 137.275 34.8324 137.267 35.0001C137.264 35.52 137.056 36.0177 136.689 36.3857C136.322 36.7537 135.825 36.9625 135.305 36.9669C134.875 36.964 134.458 36.8188 134.119 36.5541C133.78 36.2894 133.538 35.9199 133.43 35.5032L129.71 21.7065L129.294 22.7544C129.181 23.1669 128.938 23.5318 128.601 23.7949C128.264 24.0579 127.851 24.2049 127.424 24.2139C126.9 24.2119 126.397 24.0059 126.022 23.6396C125.648 23.2732 125.43 22.7753 125.416 22.2513C125.424 22.0803 125.455 21.9111 125.508 21.7482L127.86 13.6689C127.965 13.252 128.206 12.8821 128.545 12.6178C128.884 12.3535 129.301 12.2099 129.731 12.2099ZM118.325 12.2052C118.379 12.2011 118.433 12.2011 118.487 12.2052H118.541C118.976 12.2081 119.398 12.3524 119.744 12.6165C120.089 12.8805 120.34 13.2499 120.457 13.6689L126.027 34.5011C126.063 34.6643 126.078 34.8314 126.073 34.9985C126.08 35.4687 125.914 35.9253 125.608 36.2819C125.299 36.6402 124.87 36.8726 124.402 36.9348C123.933 36.9969 123.458 36.8845 123.068 36.619C122.677 36.3535 122.397 35.9534 122.282 35.4949L117.053 16.0931H110.203C109.693 16.0791 109.209 15.8672 108.853 15.5025C108.497 15.1377 108.297 14.6486 108.295 14.1388C108.294 13.6299 108.493 13.1413 108.851 12.7791C109.208 12.417 109.694 12.2107 110.203 12.2052H118.325ZM197.946 0.00115621C198.473 -0.0168007 198.985 0.175011 199.37 0.534449C199.755 0.893885 199.981 1.39153 200 1.91804C200.006 2.3283 199.879 2.72955 199.638 3.06153L176.44 35.9107C176.261 36.169 176.021 36.3797 175.742 36.5247C175.463 36.6696 175.153 36.7443 174.839 36.7423C174.327 36.7403 173.835 36.5386 173.469 36.1799C173.102 35.8212 172.89 35.3339 172.877 34.8213C172.888 34.4149 173.013 34.0198 173.239 33.682L196.487 0.832764C196.648 0.588841 196.864 0.386344 197.117 0.241809C197.371 0.0972749 197.655 0.0148054 197.946 0.00115621ZM103.452 6.17597C103.966 6.17042 104.462 6.36913 104.829 6.7285C105.197 7.08788 105.407 7.57856 105.414 8.09285V25.0871C105.412 26.9922 106.158 28.8219 107.493 30.181C108.827 31.5401 110.643 32.3197 112.547 32.3514C112.784 32.3514 112.963 32.3056 113.378 32.3056C113.637 32.3105 113.891 32.3665 114.128 32.4706C114.365 32.5746 114.578 32.7245 114.756 32.9117C114.935 33.0989 115.074 33.3196 115.166 33.561C115.259 33.8024 115.302 34.0598 115.295 34.3181C115.295 35.7319 114.064 36.2808 112.647 36.2808C109.692 36.2482 106.867 35.0575 104.781 32.9645C102.694 30.8715 101.511 28.0431 101.486 25.0871V16.0889H98.8839C98.629 16.0889 98.3766 16.0387 98.141 15.9411C97.9055 15.8435 97.6915 15.7005 97.5113 15.5202C97.331 15.3399 97.188 15.1258 97.0905 14.8902C96.9929 14.6546 96.9427 14.4021 96.9427 14.1471C96.9427 13.8921 96.9929 13.6396 97.0905 13.404C97.188 13.1684 97.331 12.9543 97.5113 12.774C97.6915 12.5937 97.9055 12.4507 98.141 12.3531C98.3766 12.2555 98.629 12.2052 98.8839 12.2052H101.486V8.09285C101.5 7.58027 101.713 7.09336 102.08 6.73546C102.447 6.37756 102.939 6.17686 103.452 6.17597ZM153.295 12.1595C153.767 12.1609 154.223 12.3347 154.576 12.6483C154.929 12.9619 155.155 13.3937 155.212 13.8625C155.269 14.3313 155.153 14.8049 154.886 15.1942C154.619 15.5835 154.219 15.8618 153.761 15.9767C152.283 16.4842 151.004 17.4452 150.105 18.7226C149.205 20.0001 148.732 21.5289 148.752 23.0912V25.3657C148.752 28.6922 150.838 31.6029 153.885 32.5385C154.311 32.6871 154.671 32.9806 154.902 33.3676C155.134 33.7546 155.222 34.2106 155.152 34.6561C155.082 35.1016 154.857 35.5083 154.518 35.8052C154.179 36.1021 153.746 36.2704 153.295 36.2808C153.078 36.2787 152.863 36.2393 152.659 36.1644L152.551 36.1269C150.313 35.3486 148.37 33.8964 146.99 31.9697C145.609 30.043 144.858 27.7361 144.84 25.3657V23.0829C144.841 20.7068 145.585 18.3904 146.968 16.4584C148.35 14.5263 150.303 13.0755 152.551 12.3092H152.584L152.767 12.2427C152.938 12.1897 153.116 12.1618 153.295 12.1595ZM160.386 12.1678C160.565 12.1698 160.743 12.1978 160.914 12.251L161.097 12.3175H161.13C163.379 13.0838 165.331 14.5346 166.714 16.4667C168.097 18.3987 168.841 20.7151 168.841 23.0912V25.3657C168.821 27.7335 168.07 30.0372 166.69 31.9614C165.311 33.8855 163.37 35.3361 161.135 36.1144L161.027 36.1519C160.823 36.2268 160.608 36.2662 160.391 36.2683C159.94 36.2579 159.507 36.0896 159.168 35.7927C158.828 35.4958 158.604 35.0891 158.534 34.6436C158.463 34.1982 158.552 33.7421 158.783 33.3551C159.015 32.9681 159.375 32.6747 159.8 32.526C162.851 31.632 164.93 28.6922 164.93 25.3657V23.0995C164.95 21.5372 164.476 20.0084 163.577 18.7309C162.677 17.4535 161.398 16.4925 159.921 15.985C159.463 15.8701 159.063 15.5918 158.795 15.2025C158.528 14.8132 158.412 14.3397 158.469 13.8708C158.526 13.402 158.753 12.9702 159.106 12.6566C159.459 12.343 159.914 12.1692 160.386 12.1678ZM139.793 12.5413C140.187 12.2752 140.665 12.1625 141.137 12.2243C141.608 12.2862 142.041 12.5183 142.353 12.877C142.666 13.2358 142.836 13.6963 142.833 14.172C142.842 14.3397 142.827 14.5079 142.787 14.671L140.438 22.7544C140.331 23.1696 140.089 23.5377 139.751 23.8015C139.412 24.0654 138.997 24.2103 138.568 24.2139C138.048 24.2106 137.551 24.003 137.183 23.6357C136.815 23.2685 136.606 22.7712 136.602 22.2513C136.614 22.0807 136.645 21.9121 136.693 21.7482L138.996 13.6689C139.115 13.2084 139.399 12.8073 139.793 12.5413Z" fill="currentColor"/>
</svg>
